<?xml version="1.0" encoding="utf-8"?>
<!-- Generator: Adobe Illustrator 16.0.0, SVG Export Plug-In . SVG Version: 6.00 Build 0)  -->
<!DOCTYPE svg PUBLIC "-//W3C//DTD SVG 1.1//EN" "http://www.w3.org/Graphics/SVG/1.1/DTD/svg11.dtd">
<svg version="1.1" id="Ebene_1_Kopie" xmlns="http://www.w3.org/2000/svg" xmlns:xlink="http://www.w3.org/1999/xlink" x="0px"
	 y="0px" width="64px" height="64px" viewBox="0 0 64 64" enable-background="new 0 0 64 64" xml:space="preserve">
<g>
	<circle cx="62.5" cy="13.497" r="1.5"/>
	<circle cx="58.5" cy="17.497" r="1.5"/>
	<circle cx="54.5" cy="21.497" r="1.5"/>
	<circle cx="50.5" cy="25.497" r="1.5"/>
	<circle cx="50.5" cy="33.497" r="1.5"/>
	<circle cx="54.5" cy="37.497" r="1.5"/>
	<circle cx="58.5" cy="41.497" r="1.5"/>
	<circle cx="62.5" cy="45.497" r="1.5"/>
	<circle cx="58.5" cy="25.497" r="1.5"/>
	<circle cx="62.5" cy="21.539" r="1.5"/>
	<circle cx="58.5" cy="33.497" r="1.5"/>
	<circle cx="62.5" cy="37.206" r="1.5"/>
	<circle cx="62.5" cy="29.497" r="1.5"/>
	<circle cx="54.5" cy="29.497" r="1.5"/>
	<circle cx="46.5" cy="29.497" r="1.5"/>
	<g>
		<path fill-rule="evenodd" clip-rule="evenodd" d="M23.371,39.592c1.379-1.01,3.392-4.227,4.227-7.125
			c0.747-2.586,1.466-5.178,1.908-7.841c0.304-1.828,0.27-2.138,0.38-4.009c0.018-0.315,0.007-0.732,0.007-0.732
			s5.861-0.055,6.518-0.055c3.424-0.152,3.395-3.914,3.395-3.914S39.805,12,36.41,12l-11.177,0.004L13.038,32H0v24l28-0.002
			l0.041-17.957c0,0-1.134,1.853-2.408,3.075C21.541,45.041,16,46.999,16,46.999v-3.001C16,43.998,20.625,42.082,23.371,39.592z"/>
		<path fill-rule="evenodd" clip-rule="evenodd" d="M38.438,39.695c1.317-0.002,4.799-0.016,7.101,0
			c2.367,0,2.367-2.718,2.367-2.718s0-2.806-2.367-2.806c-0.567-0.03-2.367,0-2.367,0V21.631H32.915v18.064c0,0,1.747,0,2.367,0
			c0-3.848,0-15.697,0-15.697h5.523v10.174c0,0-0.656-0.015-2.367,0c-2.367,0-2.334,2.806-2.334,2.806S36.071,39.695,38.438,39.695z
			"/>
		<path fill-rule="evenodd" clip-rule="evenodd" d="M47.221,41.237c2.323,0.002,2.471,3.194,2.471,3.194s-0.104,3.118-2.471,3.118
			c-2.891,0-8.943-0.018-11.834,0c-2.368,0-2.368-3.156-2.368-3.156s-0.076-3.156,2.368-3.156H47.221z"/>
		<path fill-rule="evenodd" clip-rule="evenodd" d="M37.856,49.129c-2.367,0-2.47,3.155-2.47,3.155s0.104,3.155,2.47,3.155
			c0,0,5.031,0,7.101,0c2.367,0,2.367-3.118,2.367-3.118s0-3.192-2.367-3.192H37.856z"/>
	</g>
</g>
</svg>
