<?xml version="1.0" encoding="utf-8"?>
<!-- Generator: Adobe Illustrator 16.0.0, SVG Export Plug-In . SVG Version: 6.00 Build 0)  -->
<!DOCTYPE svg PUBLIC "-//W3C//DTD SVG 1.1//EN" "http://www.w3.org/Graphics/SVG/1.1/DTD/svg11.dtd">
<svg version="1.1" id="Ebene_1_Kopie" xmlns="http://www.w3.org/2000/svg" xmlns:xlink="http://www.w3.org/1999/xlink" x="0px"
	 y="0px" width="64px" height="63.875px" viewBox="0 0 64 63.875" enable-background="new 0 0 64 63.875" xml:space="preserve">
<g>
	<path fill-rule="evenodd" clip-rule="evenodd" d="M8,56.662l-21.33,0.113l-18.846-22.906v22.771h-15.467V8.208h15.467l0.054,0.022
		L8,56.662z M-32.046,22.735l23.495,28.427l2.615-0.044l-26.146-31.633L-32.046,22.735z"/>
</g>
<path fill-rule="evenodd" clip-rule="evenodd" d="M56,56.662l-21.33,0.113L15.825,33.869v22.771H0.358V8.208h15.467l0.054,0.022
	L56,56.662z M15.954,22.735l23.495,28.427l2.615-0.044L15.917,19.485L15.954,22.735z M4.797,51.881v-2.107h4.671v-1.747h1.661v3.854
	H4.797z M10.369,48.558h-0.228v2.127H5.557v0.247h4.812V48.558z M4.797,47.694v-3.731h1.661v1.709H7.16v-1.68h1.576v1.68h0.731
	v-1.775h1.661v3.798H4.797z M10.369,44.6h-0.228v1.898H8.062v-1.804H7.835v1.804H5.784V44.6H5.557v2.146h4.812V44.6z M4.797,43.328
	v-2.022h2.155v-1.13H4.797v-2.031h6.332v2.031H8.784v1.13h2.345v2.022H4.797z M10.369,42.132H7.968v-2.791h2.401v-0.247H5.557v0.247
	h2.183v2.791H5.557v0.247h4.812V42.132z M4.797,37.48V35.81l2.43-1.652l-2.43-1.642v-1.671h6.332v2.021H8.851l1.898,1.291
	l-1.898,1.301h2.278v2.022H4.797z M10.369,36.284H6.012l3.095-2.127l-3.095-2.116h4.357v-0.247H5.557v0.247l3.123,2.116
	l-3.123,2.127v0.247h4.812V36.284z M4.797,28.3v-1.519l6.332-2.402v1.994l-0.57,0.209v1.917l0.57,0.209v1.993L4.797,28.3z
	 M10.369,29.287l-0.475-0.181v-3.133l0.475-0.18v-0.266L5.557,27.36v0.36l4.812,1.832V29.287z M5.784,27.54l3.883-1.48v2.962
	L5.784,27.54z M9.164,27.113L8.053,27.54l1.111,0.428V27.113z M4.797,24.237v-1.661l2.439-1.747H4.797v-1.984h6.332v1.671
	l-2.431,1.737h2.431v1.984H4.797z M10.369,23.107H5.983l4.386-3.133v-0.247H5.557v0.247h4.386l-4.386,3.133v0.247h4.812V23.107z
	 M4.797,18.181V16.52l2.439-1.747H4.797v-1.984h6.332v1.671l-2.431,1.737h2.431v1.984H4.797z M10.369,17.051H5.983l4.386-3.133
	v-0.247H5.557v0.247h4.386l-4.386,3.133v0.247h4.812V17.051z"/>
</svg>
